<?xml version="1.0" standalone="no"?>
<!DOCTYPE svg PUBLIC "-//W3C//DTD SVG 20010904//EN"
 "http://www.w3.org/TR/2001/REC-SVG-20010904/DTD/svg10.dtd">
<svg version="1.0" xmlns="http://www.w3.org/2000/svg"
 width="500.000000pt" height="500.000000pt" viewBox="0 0 500.000000 500.000000"
 preserveAspectRatio="xMidYMid meet">
<metadata>
Created by potrace 1.14, written by Peter Selinger 2001-2017
</metadata>
<g transform="translate(0.000000,500.000000) scale(0.100000,-0.100000)"
fill="#000000" stroke="none">
<path d="M2175 4889 c-241 -31 -505 -109 -723 -214 -166 -80 -251 -132 -402
-244 -293 -218 -523 -498 -691 -836 -119 -242 -196 -498 -229 -765 -13 -109
-13 -441 0 -550 41 -328 163 -684 327 -950 178 -289 428 -547 720 -743 128
-85 386 -209 545 -262 254 -83 459 -115 743 -115 284 0 489 32 743 115 159 53
417 177 545 262 292 196 542 454 720 743 164 266 286 622 327 950 13 109 13
441 0 550 -33 267 -110 523 -229 765 -168 338 -398 618 -691 836 -151 112
-236 164 -402 244 -224 108 -484 183 -738 215 -100 12 -465 11 -565 -1z"/>
</g>
</svg>
